<svg data-v-0dd9719b="" version="1.0" xmlns="http://www.w3.org/2000/svg" xmlns:xlink="http://www.w3.org/1999/xlink" width="100%" height="100%" viewBox="0 0 340.000000 250.000000" preserveAspectRatio="xMidYMid meet" color-interpolation-filters="sRGB" style="margin: auto;"> <rect data-v-0dd9719b="" x="0" y="0" width="100%" height="100%" fill="#ffffff" fill-opacity="1" class="background"></rect> <rect data-v-0dd9719b="" x="0" y="0" width="100%" height="100%" fill="url(#watermark)" fill-opacity="1" class="watermarklayer"></rect> <g data-v-0dd9719b="" fill="#000000" class="icon-text-wrapper icon-svg-group iconsvg" transform="translate(55.04999542236328,94.05302047734219)"><g class="iconsvg-imagesvg" transform="translate(0,0)"><g><rect fill="#000000" fill-opacity="0" stroke-width="2" x="0" y="0" width="60" height="61.893955023726015" class="image-rect"></rect> <svg x="0" y="0" width="60" height="61.893955023726015" filtersec="colorsb5831133018" class="image-svg-svg primary" style="overflow: visible;"><svg xmlns="http://www.w3.org/2000/svg" viewBox="-0.00011149048805236816 0.0015849918127059937 147.79364013671875 152.45913696289062"><title>资源 6</title><g id="图层_2" data-name="图层 2"><g id="图层_1-2" data-name="图层 1"><path d="M147.44,78.43A100.52,100.52,0,0,0,125,60.1a98.52,98.52,0,0,0-19-8.84,54.81,54.81,0,0,0-7.09-2.08,6.68,6.68,0,0,0-.71-.25c-1.85-.42-3.7-.87-5.56-1.24a78.84,78.84,0,0,0-10.26-1.41,56.31,56.31,0,0,0-7.22-.44,95.72,95.72,0,0,0-15,.87,66.23,66.23,0,0,0-8.7,1.61,57.46,57.46,0,0,0-8.35,2.24,5.26,5.26,0,0,1-1.59.5c-.21-.08-.31.11-.46.19a18,18,0,0,1-1.91.67A.09.09,0,0,0,39,52a.84.84,0,0,1-1.22.47h0c-.26.08-.54.14-.8.24A95.74,95.74,0,0,0,25.8,57.83a83.19,83.19,0,0,0-9.51,5.9.38.38,0,0,0-.15.05A97.83,97.83,0,0,0,.25,77.54c-.5.53-.15.76.18,1.09Q9.66,87.86,18.87,97.1c.56.56.81.5,1.31,0a70.58,70.58,0,0,1,11.21-9.93c1.87-1.34,3.85-2.51,5.76-3.78h0c.18-.08.37-.15.54-.24A71.52,71.52,0,0,1,52,76.91a84.57,84.57,0,0,1,10.53-2.44c2.3-.26,4.6-.52,6.92-.67,2.86-.19,5.72,0,8.57,0,.2,0,.39.08.59.09a73.22,73.22,0,0,1,19.56,4.18c2.61.94,5.12,2.13,7.66,3.23l1.49.82a71.43,71.43,0,0,1,20.26,16c.46.53.72.58,1.23.05,2-2,4-4,6-6C136,91,137.14,90,138.13,88.79a1.48,1.48,0,0,0,.21-.13c3.06-3.06,6.11-6.12,9.19-9.15C148,79,147.76,78.78,147.44,78.43Z" fill="#000000"></path><path d="M85.93,139.84a13.44,13.44,0,0,0-8.86-7.22,10.6,10.6,0,0,0-4.3-.48,12.1,12.1,0,0,0-6,1.67,13.17,13.17,0,0,0-5.24,4.83c-.36.53-.28.84.16,1.28,3.35,3.31,6.67,6.65,10,10,.77.76,1.53,1.52,2.29,2.29.25.26.45.38.76.05,1.71-1.77,3.55-3.42,5.19-5.26a16.63,16.63,0,0,0,2.22-2.22,20,20,0,0,0,2.7-2.74c.24-.24.46-.49.72-.71A1,1,0,0,0,85.93,139.84Z" fill="#000000"></path><path d="M77,89c-3.09,0-6.18,0-9.26.16A42.17,42.17,0,0,1,77,89Z" fill="#f33422"></path><path d="M110.11,36.57,84.8,11.25Q79.27,5.72,73.69.2c-.2-.33-.41-.19-.61,0l-5.94,6c-.37.35-.76.67-1.11,1-3.18,3.28-6.57,6.35-9.64,9.73-1.51,1.25-2.81,2.72-4.19,4.1-2.09,2.08-4.14,4.19-6.21,6.3a1.55,1.55,0,0,0-.22.12q-4.64,4.64-9.26,9.28c-.1.1-.31.2-.12.45a3.25,3.25,0,0,0,.38-.08c2.63-.87,5.29-1.68,8-2.35l5.18-1.29h0a3.82,3.82,0,0,0,.59,0c2.15-.46,4.33-.82,6.51-1.12,1.84-.26,3.69-.49,5.53-.73h0q7.47-.57,15-.41h0l4.46.23a6.83,6.83,0,0,0,2.16.19l4.14.47h0l2.69.42,6,1a2.66,2.66,0,0,0,.39.16q4.62,1,9.15,2.34c1.34.4,2.68.84,4.06,1.27C110.58,36.89,110.3,36.76,110.11,36.57Z" fill="#f33422"></path><path d="M39,52c-.21,1.19-.27,1.21-1.22.47A3,3,0,0,1,39,52Z" fill="#f33422"></path><path d="M41,51.25a3.42,3.42,0,0,1-1.91.67A5.73,5.73,0,0,1,41,51.25Z" fill="#f33422"></path><path d="M43.08,50.56a1.8,1.8,0,0,1-1.59.5A5.26,5.26,0,0,1,43.08,50.56Z" fill="#f33422"></path><path d="M117.21,109.09a43.88,43.88,0,0,0-5.36-5.46,2.85,2.85,0,0,0-1.19-1A58.39,58.39,0,0,0,93.72,92.55,4.82,4.82,0,0,1,92.4,92c-.22-.12-.5,0-.7-.17a14.27,14.27,0,0,0-3.36-1.12A47.41,47.41,0,0,0,79,89.11h0A6.28,6.28,0,0,0,77,89a68.13,68.13,0,0,0-9.26.16,5.2,5.2,0,0,1-1.66.19,17.13,17.13,0,0,0-3.35.48,21.44,21.44,0,0,0-4.33,1.08,5.24,5.24,0,0,0-1.88.45,49.36,49.36,0,0,0-9.9,4.14A15.07,15.07,0,0,0,43.84,97a50.07,50.07,0,0,0-8.8,6.6,21.34,21.34,0,0,0-3.05,3,13.59,13.59,0,0,0-1.19,1.21c-.6.51-.43.85.07,1.34q8.91,8.86,17.78,17.76l2.58,2.58c.21.21.43.46.69.1.35-.51.88-.88,1.07-1.5h0a33.9,33.9,0,0,1,3.46-3.21h0c.14-.09.3-.16.43-.26A26.9,26.9,0,0,1,73.47,119c1.14,0,2.26.13,3.39.18h0a27.17,27.17,0,0,1,18.22,10.58c1,1.34,1,1.36,2.1,0a67.58,67.58,0,0,0,4.92-5c.22-.22.43-.44.65-.65,1.68-1.54,3.32-3.11,4.84-4.8.79-.77,1.61-1.51,2.37-2.3a39.18,39.18,0,0,0,3.23-3.34L117,110C117.29,109.74,117.58,109.52,117.21,109.09Z" fill="#f33422"></path><path d="M93.72,92.55A1.53,1.53,0,0,1,92.4,92,3.49,3.49,0,0,1,93.72,92.55Z" fill="#000000"></path></g></g></svg></svg> <!----></g></g> <g transform="translate(67,14.75197982788086)"><g data-gra="path-name" fill-rule="" class="tp-name iconsvg-namesvg"><g transform="scale(1)"><g><path d="M3.69 0.4L5.85-14.89 2.43-14.89 3.06-19.17 6.43-19.17 8.01-30.29 6.57-31.99 16.83-31.99 15.03-19.17 16.61-19.17 28.66-31.14 38.07-31.14 26.01-19.17 38.97-19.17 38.34-14.89 14.4-14.89 13-4.86 18.22-5.49 17.64-1.21 3.69 0.4ZM21.02-13.18L30.42-13.18 37.89 0.4 28.48 0.4 21.02-13.18ZM63.22-7.6L66.47-30.46 65.07-31.99 74.11-31.99 70.78-7.6 63.22-7.6ZM54.85-4.14L71.1-4.14 75.02-14.31 81.22-14.31 75.82 0.32 54.22 0.32 54.85-4.14ZM49.86 0.4L42.16 0.4 46.53-12.33 54.22-12.33 49.86 0.4ZM65.25-28.93L61.88-13.18 55.8-13.18 59.22-28.93 65.25-28.93ZM75.87-15.71L74.79-28.93 80.95-28.93 82.03-15.71 75.87-15.71ZM55.8-23.45L48.1-23.45 47.48-31.14 55.17-31.14 55.8-23.45ZM54.49-14.04L46.8-14.04 46.17-21.73 53.86-21.73 54.49-14.04ZM99.41-31.99L108.99-31.99 107.86-30.15 123.57-30.15 122.98-26.1 105.44-26.1 104.4-24.43 122.13-24.43 121.09-16.92 122.94-16.92 122.35-12.78 120.51-12.78 119.97-9 121.14-9 120.6-5.13 119.43-5.13 119.07-2.7Q118.89-1.4 118.13-0.52 117.36 0.36 116.46 0.36L116.46 0.36 102.38 0.36 106.56-3.73 112.59-3.73 112.81-5.13 96.75-5.13 97.83-12.78 95.13-12.78 95.72-16.92 98.41-16.92 99.09-21.78 95.49-21.78 100.94-30.42 99.41-31.99ZM90.18 0.36L83.43 0.36 87.48-12.38 94.19-12.38 90.18 0.36ZM94.32-14.08L87.57-14.08 87.16-21.78 93.87-21.78 94.32-14.08ZM95.63-23.45L88.88-23.45 88.47-31.14 95.17-31.14 95.63-23.45ZM105.57-20.65L105.03-16.7 107.37-16.7 107.1-19.57 112.41-19.57 112.68-16.7 114.44-16.7 114.97-20.65 105.57-20.65ZM113.35-8.96L113.89-13 104.49-13 103.95-8.96 106.52-8.96 106.2-11.92 111.73-11.92 112.05-8.96 113.35-8.96ZM135.58-25.43L135.72-26.5 128.88-26.5 129.42-30.2 136.21-30.2 136.26-30.29 134.82-31.99 144.36-31.99 144.09-30.2 150.75-30.2 150.79-30.29 149.35-31.99 158.89-31.99 158.63-30.2 165.33-30.2 164.79-26.5 158.08-26.5 157.95-25.43 150.12-25.43 150.25-26.5 143.55-26.5 143.41-25.43 135.58-25.43ZM136.66-9.4L146.34-9.4 146.47-10.21 153.67-10.21 153.54-9.4 163.13-9.4 162.63-5.94 153.04-5.94 152.14 0.36 144.94 0.36 145.84-5.94 136.17-5.94 136.66-9.4ZM141.07-18.4L141.97-24.61 161.91-24.61 161.01-18.4 141.07-18.4ZM138.24-17.64L150.21-17.64 149.22-10.66 137.25-10.66 138.24-17.64ZM151.42-17.64L163.39-17.64 162.4-10.66 150.44-10.66 151.42-17.64ZM132.25 0.32L124.42 0.32 128.47-10.26 136.26-10.26 132.25 0.32ZM136.57-11.88L128.79-11.88 127.71-17.23 135.45-17.23 136.57-11.88ZM137.56-18.9L129.78-18.9 128.7-24.25 136.44-24.25 137.56-18.9ZM144.99-4.81L141.39 0.36 135.27 0.36 138.87-4.81 144.99-4.81ZM155.52 0.36L154.08-4.81 160.15-4.81 161.64 0.36 155.52 0.36ZM147.6-20.79L155.25-20.79 155.43-22.23 147.78-22.23 147.6-20.79ZM158.49-15.25L155.65-15.25 155.34-13.05 158.17-13.05 158.49-15.25ZM145.26-15.25L142.42-15.25 142.11-13.05 144.94-13.05 145.26-15.25Z" transform="translate(-2.430000066757202, 31.989999771118164)"></path></g> <!----> <!----> <!----> <!----> <!----> <!----> <!----></g></g> <!----></g></g><defs v-gra="od"></defs></svg>